HIERARCHY
ROOT Hips
{
    OFFSET 0.000000 0.000000 0.000000
    CHANNELS 6 Xposition Yposition Zposition Zrotation Xrotation Yrotation
    JOINT Spine
    {
        OFFSET -0.000000 7.856138 0.000000
        CHANNELS 3 Zrotation Xrotation Yrotation
        JOINT Spine1
        {
            OFFSET -0.000000 20.830866 0.000000
            CHANNELS 3 Zrotation Xrotation Yrotation
            JOINT Neck
            {
                OFFSET -0.000000 20.745317 1.885938
                CHANNELS 3 Zrotation Xrotation Yrotation
                JOINT Head
                {
                    OFFSET -0.000000 13.412918 -1.916131
                    CHANNELS 3 Zrotation Xrotation Yrotation
                    End Site
                    {
                        OFFSET -0.000000 23.951641 0.000000
                    }
                }
            }
            JOINT LeftShoulder
            {
                OFFSET 3.826675 19.078362 -0.073511
                CHANNELS 3 Zrotation Xrotation Yrotation
                JOINT LeftArm
                {
                    OFFSET 10.442133 0.000000 0.000000
                    CHANNELS 3 Zrotation Xrotation Yrotation
                    JOINT LeftForeArm
                    {
                        OFFSET 37.051945 0.000000 0.000000
                        CHANNELS 3 Zrotation Xrotation Yrotation
                        JOINT LeftHand
                        {
                            OFFSET 24.394852 0.000000 0.000000
                            CHANNELS 3 Zrotation Xrotation Yrotation
                            End Site
                            {
                                OFFSET 14.370985 0.000000 0.000000
                            }
                        }
                    }
                }
            }
            JOINT RightShoulder
            {
                OFFSET -3.827599 19.078362 -0.073511
                CHANNELS 3 Zrotation Xrotation Yrotation
                JOINT RightArm
                {
                    OFFSET -10.442133 0.000000 0.000000
                    CHANNELS 3 Zrotation Xrotation Yrotation
                    JOINT RightForeArm
                    {
                        OFFSET -37.051945 0.000000 0.000000
                        CHANNELS 3 Zrotation Xrotation Yrotation
                        JOINT RightHand
                        {
                            OFFSET -24.394852 0.000000 0.000000
                            CHANNELS 3 Zrotation Xrotation Yrotation
                            End Site
                            {
                                OFFSET -14.370985 0.000000 0.000000
                            }
                        }
                    }
                }
            }
        }
    }
    JOINT LeftUpLeg
    {
        OFFSET 9.580656 0.000000 0.000000
        CHANNELS 3 Zrotation Xrotation Yrotation
        JOINT LeftLeg
        {
            OFFSET -0.000000 -43.769192 0.000000
            CHANNELS 3 Zrotation Xrotation Yrotation
            JOINT LeftFoot
            {
                OFFSET -0.000000 -42.531967 0.000000
                CHANNELS 3 Zrotation Xrotation Yrotation
                JOINT LeftToeBase
                {
                    OFFSET -0.000000 -6.227426 14.370985
                    CHANNELS 3 Zrotation Xrotation Yrotation
                    End Site
                    {
                        OFFSET -0.000000 0.000000 3.832262
                    }
                }
            }
        }
    }
    JOINT RightUpLeg
    {
        OFFSET -9.580656 0.000000 0.000000
        CHANNELS 3 Zrotation Xrotation Yrotation
        JOINT RightLeg
        {
            OFFSET -0.000000 -43.769192 0.000000
            CHANNELS 3 Zrotation Xrotation Yrotation
            JOINT RightFoot
            {
                OFFSET -0.000000 -42.531967 0.000000
                CHANNELS 3 Zrotation Xrotation Yrotation
                JOINT RightToeBase
                {
                    OFFSET -0.000000 -6.227426 14.370985
                    CHANNELS 3 Zrotation Xrotation Yrotation
                    End Site
                    {
                        OFFSET -0.000000 0.000000 3.832262
                    }
                }
            }
        }
    }
}
MOTION
Frames:    8
Frame Time:    0.008333
-204.577774    93.144760    30.678038    0.744563    -1.058910    88.085472    -0.917270    -7.898861    -1.444302    5.289053    12.157825    -1.944618    3.960635    3.171737    0.270205    2.078411    -4.895126    0.187743    10.554667    -0.407583    6.839154    -17.316555    6.144375    -10.543313    7.421281    -6.991423    -4.899608    -2.716985    -6.698484    0.966507    -14.873300    0.875528    -4.650897    19.885954    2.108484    5.498596    -6.833206    -3.466489    11.686491    -5.809108    -2.865981    1.945171    7.799395    0.838091    -2.658128    -4.348703    8.762330    -3.603352    1.368420    -11.050833    16.884075    0.000000    0.000000    0.000000    -0.923943    -1.337565    5.397350    2.224071    10.913866    2.356749    -4.088137    -10.973264    -12.649456    0.000000    0.000000    0.000000    
-204.591324    93.223953    30.554216    0.775586    -1.058227    87.614655    -0.841884    -7.949089    -1.291504    5.317489    12.366401    -1.809525    3.758729    3.013056    0.239393    2.278651    -5.127068    0.216319    10.481299    -0.417939    6.937290    -17.396486    6.344872    -10.468032    7.412042    -7.080357    -5.074416    -2.671261    -6.779016    1.086260    -14.901022    0.788695    -4.507370    19.957405    1.725896    5.532825    -6.464835    -3.112735    11.333864    -5.917480    -2.585233    2.206129    7.609804    1.325041    -2.968433    -4.217444    8.015234    -3.141582    1.276221    -10.675647    17.102585    0.000000    0.000000    0.000000    -1.081206    -1.359523    5.232313    2.293562    10.890799    2.194937    -3.444718    -10.882419    -13.253883    0.000000    0.000000    0.000000    
-204.612152    93.305031    30.449795    0.803081    -1.052469    87.144539    -0.815782    -7.986252    -1.102810    5.344903    12.598593    -1.636386    3.639945    2.748074    0.175242    2.431692    -5.411885    0.189633    10.514283    -0.378552    7.083640    -17.491814    6.490220    -10.538129    7.325214    -7.153978    -5.182119    -2.767783    -6.846672    0.923817    -14.864600    0.763516    -4.567087    19.927349    1.356539    5.702696    -5.956264    -2.693740    11.037086    -5.949895    -2.241281    2.368645    7.471832    1.772898    -3.300605    -4.165896    7.340649    -2.772400    1.155345    -10.326761    17.424076    0.000000    0.000000    0.000000    -1.229551    -1.343716    4.840474    2.230291    10.828922    2.180659    -2.567600    -10.970461    -13.523778    0.000000    0.000000    0.000000    
-204.612976    93.381737    30.335411    0.816558    -1.055689    86.710854    -0.750407    -8.117436    -0.941568    5.353589    12.926785    -1.495284    3.434436    2.526486    0.107792    2.677002    -5.860387    0.194603    10.543192    -0.350424    7.228271    -17.584826    6.677004    -10.589694    7.267816    -7.319878    -5.252673    -2.937650    -7.010648    0.864390    -14.873718    0.726954    -4.584151    19.966270    1.245352    5.858088    -5.712643    -2.347309    10.669417    -5.788887    -1.946222    2.620486    7.362936    2.203683    -3.508239    -4.120849    6.698499    -2.555497    0.942041    -10.042873    17.707682    0.000000    0.000000    0.000000    -1.435407    -1.313029    4.472365    2.182918    10.686326    1.722559    -1.569441    -10.996918    -12.951290    0.000000    0.000000    0.000000    
-204.624146    93.442108    30.237663    0.827742    -1.075517    86.269135    -0.698687    -8.132150    -0.783973    5.417280    13.053134    -1.354513    3.242497    2.351992    0.037196    2.826697    -6.256616    0.178739    10.443112    -0.329001    7.303139    -17.559578    6.818550    -10.548045    7.179410    -7.426606    -5.278145    -3.026350    -7.120855    0.875469    -14.852657    0.785848    -4.601329    19.917894    1.160292    6.074469    -5.447879    -1.935280    10.279453    -5.838771    -1.588983    2.822244    7.313848    2.586691    -3.507621    -4.113036    6.169517    -2.619477    0.778933    -9.863521    18.055075    0.000000    0.000000    0.000000    -1.626894    -1.277744    4.165613    2.399994    10.491371    0.982115    -1.144611    -10.803164    -12.902525    0.000000    0.000000    0.000000    
-204.640839    93.491478    30.152018    0.818398    -1.092216    85.853630    -0.575782    -8.254999    -0.699461    5.321123    13.394052    -1.283135    3.138907    2.115359    0.066987    2.862768    -6.854931    0.237734    10.347769    -0.268360    7.578593    -17.397165    6.886445    -10.573099    7.104136    -7.531995    -5.253854    -3.307117    -7.233436    0.876524    -15.035616    0.602282    -4.464419    20.146051    1.176599    6.199823    -5.298941    -1.533356    9.885163    -5.675545    -1.226645    3.060652    7.268255    2.907538    -3.368375    -4.084332    5.700740    -2.749909    0.405353    -9.790462    18.361467    0.000000    0.000000    0.000000    -1.778947    -1.293535    3.804569    2.364441    10.418271    1.044463    -0.184873    -10.950860    -12.674833    0.000000    0.000000    0.000000    
-204.663940    93.507050    30.071009    0.707972    -1.117125    85.490631    -0.579700    -8.481139    -0.559324    5.406688    13.747076    -1.168619    2.996010    1.711627    -0.008640    3.045526    -7.263770    0.214134    10.465755    -0.395593    7.742172    -17.506191    7.073365    -10.642693    7.005611    -7.637840    -5.206941    -3.145799    -7.350180    1.050090    -15.104848    0.455936    -4.525309    20.184523    1.301340    6.336003    -5.150378    -1.064477    9.477299    -5.622002    -0.798342    3.279420    7.265003    3.090559    -3.213678    -4.085013    5.281503    -2.874808    0.360931    -9.722840    18.513466    0.000000    0.000000    0.000000    -1.921239    -1.360293    3.323067    2.388000    10.228698    0.663765    0.530563    -10.976343    -11.979531    0.000000    0.000000    0.000000    
-204.641418    93.533241    30.009523    0.811473    -1.156529    85.102829    -0.543949    -8.467562    -0.467888    5.475045    14.006354    -1.100761    2.339167    1.440489    -0.123190    3.916298    -7.740751    0.370887    10.355365    -0.438035    7.987168    -17.413996    7.145525    -10.676093    7.001393    -7.634813    -5.088886    -3.319721    -7.357929    1.113119    -15.222963    0.499679    -4.369891    20.299877    1.615403    6.469696    -5.335034    -0.816549    9.007501    -5.611492    -0.571150    3.572115    7.297705    3.546846    -3.016069    -4.156623    4.809690    -2.986436    0.284355    -9.606359    18.677559    0.000000    0.000000    0.000000    -2.024716    -1.147704    2.801577    2.363739    9.921366    0.333693    1.179566    -10.843035    -11.161088    0.000000    0.000000    0.000000    
